<?xml version="1.0" encoding="UTF-8"?>
<svg id="Layer_1" xmlns="http://www.w3.org/2000/svg" xmlns:xlink="http://www.w3.org/1999/xlink" version="1.1" viewBox="0 0 389.43 222.63">
  <!-- Generator: Adobe Illustrator 29.5.1, SVG Export Plug-In . SVG Version: 2.1.0 Build 141)  -->
  <defs>
    <style>
      .st0, .st1, .st2, .st3, .st4, .st5, .st6 {
        fill: none;
      }

      .st7 {
        fill: #cd5c5c;
      }

      .st7, .st8 {
        opacity: .8;
      }

      .st1 {
        stroke-miterlimit: 10;
      }

      .st1, .st2, .st6 {
        stroke-linecap: square;
      }

      .st1, .st3 {
        stroke: #758d99;
        stroke-width: .5px;
      }

      .st8 {
        fill: #4682b4;
      }

      .st2, .st3, .st4, .st5, .st6 {
        stroke-linejoin: round;
      }

      .st2, .st4 {
        stroke: #cd5c5c;
      }

      .st2, .st6 {
        stroke-width: 4px;
      }

      .st9 {
        fill: #758d99;
      }

      .st4, .st5 {
        opacity: .5;
        stroke-width: 5px;
      }

      .st10 {
        clip-path: url(#clippath-11);
      }

      .st11 {
        clip-path: url(#clippath-10);
      }

      .st12 {
        clip-path: url(#clippath-13);
      }

      .st13 {
        clip-path: url(#clippath-12);
      }

      .st5, .st6 {
        stroke: #4682b4;
      }

      .st14 {
        clip-path: url(#clippath-1);
      }

      .st15 {
        clip-path: url(#clippath-3);
      }

      .st16 {
        clip-path: url(#clippath-4);
      }

      .st17 {
        clip-path: url(#clippath-2);
      }

      .st18 {
        clip-path: url(#clippath-7);
      }

      .st19 {
        clip-path: url(#clippath-6);
      }

      .st20 {
        clip-path: url(#clippath-9);
      }

      .st21 {
        clip-path: url(#clippath-8);
      }

      .st22 {
        clip-path: url(#clippath-5);
      }

      .st23 {
        fill: #fff;
      }

      .st24 {
        clip-path: url(#clippath);
      }
    </style>
    <clipPath id="clippath">
      <rect class="st0" x="72.89" y="7.2" width="295.41" height="170.42"/>
    </clipPath>
    <clipPath id="clippath-1">
      <rect class="st0" x="72.89" y="7.2" width="295.41" height="170.42"/>
    </clipPath>
    <clipPath id="clippath-2">
      <rect class="st0" x="72.89" y="7.2" width="295.41" height="170.42"/>
    </clipPath>
    <clipPath id="clippath-3">
      <rect class="st0" x="72.89" y="7.2" width="295.41" height="170.42"/>
    </clipPath>
    <clipPath id="clippath-4">
      <rect class="st0" x="72.89" y="7.2" width="295.41" height="170.42"/>
    </clipPath>
    <clipPath id="clippath-5">
      <rect class="st0" x="72.89" y="7.2" width="295.41" height="170.42"/>
    </clipPath>
    <clipPath id="clippath-6">
      <rect class="st0" x="72.89" y="7.2" width="295.41" height="170.42"/>
    </clipPath>
    <clipPath id="clippath-7">
      <rect class="st0" x="72.89" y="7.2" width="295.41" height="170.42"/>
    </clipPath>
    <clipPath id="clippath-8">
      <rect class="st0" x="72.89" y="7.2" width="295.41" height="170.42"/>
    </clipPath>
    <clipPath id="clippath-9">
      <rect class="st0" x="72.89" y="7.2" width="295.41" height="170.42"/>
    </clipPath>
    <clipPath id="clippath-10">
      <rect class="st0" x="72.89" y="7.2" width="295.41" height="170.42"/>
    </clipPath>
    <clipPath id="clippath-11">
      <rect class="st0" x="72.89" y="7.2" width="295.41" height="170.42"/>
    </clipPath>
    <clipPath id="clippath-12">
      <rect class="st0" x="72.89" y="7.2" width="295.41" height="170.42"/>
    </clipPath>
    <clipPath id="clippath-13">
      <rect class="st0" x="72.89" y="7.2" width="295.41" height="170.42"/>
    </clipPath>
  </defs>
  <rect class="st23" width="389.43" height="222.63"/>
  <rect class="st23" x="72.89" y="7.2" width="295.41" height="170.42"/>
  <line class="st9" x1="72.89" y1="187.62" x2="72.89" y2="184.62"/>
  <line class="st3" x1="72.89" y1="187.62" x2="72.89" y2="184.62"/>
  <path class="st9" d="M72.89,191.29c.81,0,1.43.33,1.87.97.43.65.65,1.59.65,2.81s-.22,2.17-.65,2.81c-.44.64-1.06.96-1.88.96s-1.44-.32-1.87-.96-.64-1.58-.64-2.81.21-2.16.64-2.81c.43-.64,1.06-.97,1.88-.97ZM72.89,192.07c-.51,0-.89.25-1.15.75s-.38,1.25-.38,2.25.12,1.75.38,2.25.64.75,1.15.75.89-.25,1.15-.75c.25-.5.38-1.25.38-2.25s-.13-1.75-.38-2.25c-.26-.5-.64-.75-1.15-.75Z"/>
  <line class="st9" x1="109.05" y1="187.62" x2="109.05" y2="184.62"/>
  <line class="st3" x1="109.05" y1="187.62" x2="109.05" y2="184.62"/>
  <polygon class="st9" points="103.93 197.88 105.54 197.88 105.54 192.32 103.79 192.67 103.79 191.77 105.53 191.42 106.52 191.42 106.52 197.88 108.13 197.88 108.13 198.71 103.93 198.71 103.93 197.88"/>
  <path class="st9" d="M112.23,191.29c.81,0,1.43.33,1.87.97.43.65.65,1.59.65,2.81s-.22,2.17-.65,2.81c-.44.64-1.06.96-1.88.96s-1.44-.32-1.87-.96-.64-1.58-.64-2.81.21-2.16.64-2.81c.43-.64,1.06-.97,1.88-.97ZM112.23,192.07c-.51,0-.89.25-1.15.75s-.38,1.25-.38,2.25.12,1.75.38,2.25.64.75,1.15.75.89-.25,1.15-.75c.25-.5.38-1.25.38-2.25s-.13-1.75-.38-2.25c-.26-.5-.64-.75-1.15-.75Z"/>
  <line class="st9" x1="145.2" y1="187.62" x2="145.2" y2="184.62"/>
  <line class="st3" x1="145.2" y1="187.62" x2="145.2" y2="184.62"/>
  <path class="st9" d="M140.76,197.88h3.44v.83h-4.63v-.83c.37-.38.88-.9,1.53-1.56.64-.65,1.05-1.07,1.22-1.26.32-.35.54-.65.66-.9.12-.24.19-.49.19-.73,0-.38-.14-.7-.41-.94-.27-.24-.62-.37-1.06-.37-.31,0-.64.06-.98.16-.34.11-.71.27-1.1.49v-1c.4-.16.77-.28,1.11-.36s.66-.12.95-.12c.75,0,1.35.19,1.8.57s.68.88.68,1.51c0,.3-.06.59-.17.85-.11.27-.31.59-.61.95-.08.1-.34.37-.78.82-.44.45-1.05,1.08-1.84,1.89Z"/>
  <path class="st9" d="M148.38,191.29c.81,0,1.43.33,1.87.97.43.65.65,1.59.65,2.81s-.22,2.17-.65,2.81c-.44.64-1.06.96-1.88.96s-1.44-.32-1.87-.96c-.43-.64-.64-1.58-.64-2.81s.21-2.16.64-2.81c.43-.64,1.06-.97,1.88-.97ZM148.38,192.07c-.51,0-.89.25-1.15.75s-.38,1.25-.38,2.25.12,1.75.38,2.25.64.75,1.15.75.89-.25,1.15-.75c.25-.5.38-1.25.38-2.25s-.13-1.75-.38-2.25c-.26-.5-.64-.75-1.15-.75Z"/>
  <line class="st9" x1="181.36" y1="187.62" x2="181.36" y2="184.62"/>
  <line class="st3" x1="181.36" y1="187.62" x2="181.36" y2="184.62"/>
  <path class="st9" d="M179.06,194.78c.47.1.84.31,1.1.63.26.32.4.72.4,1.18,0,.72-.25,1.28-.74,1.67-.5.39-1.2.58-2.11.58-.31,0-.63-.03-.95-.09-.32-.05-.66-.14-1-.26v-.95c.27.16.57.28.9.36.32.08.66.12,1.02.12.62,0,1.09-.12,1.41-.36.32-.24.49-.6.49-1.07,0-.42-.15-.76-.45-1-.3-.24-.72-.37-1.26-.37h-.85v-.81h.89c.48,0,.85-.09,1.11-.29.26-.19.39-.47.39-.84s-.14-.66-.4-.86c-.27-.2-.65-.3-1.14-.3-.27,0-.56.03-.87.09-.31.06-.65.15-1.02.27v-.88c.37-.1.72-.18,1.05-.23.32-.05.63-.08.93-.08.74,0,1.33.17,1.77.51s.66.8.66,1.38c0,.4-.12.74-.35,1.02-.23.28-.56.48-.98.58Z"/>
  <path class="st9" d="M184.54,191.29c.81,0,1.43.33,1.87.97.43.65.65,1.59.65,2.81s-.22,2.17-.65,2.81c-.44.64-1.06.96-1.88.96s-1.44-.32-1.87-.96c-.43-.64-.64-1.58-.64-2.81s.21-2.16.64-2.81c.43-.64,1.06-.97,1.88-.97ZM184.54,192.07c-.51,0-.89.25-1.15.75s-.38,1.25-.38,2.25.12,1.75.38,2.25.64.75,1.15.75.89-.25,1.15-.75c.25-.5.38-1.25.38-2.25s-.13-1.75-.38-2.25c-.26-.5-.64-.75-1.15-.75Z"/>
  <line class="st9" x1="217.52" y1="187.62" x2="217.52" y2="184.62"/>
  <line class="st3" x1="217.52" y1="187.62" x2="217.52" y2="184.62"/>
  <path class="st9" d="M214.68,191.42h1.24v4.75h1.04v.82h-1.04v1.72h-.98v-1.72h-3.29v-.95l3.03-4.62ZM214.94,192.28l-2.49,3.89h2.49v-3.89Z"/>
  <path class="st9" d="M220.7,191.29c.81,0,1.43.33,1.87.97.43.65.65,1.59.65,2.81s-.22,2.17-.65,2.81c-.44.64-1.06.96-1.88.96s-1.44-.32-1.87-.96c-.43-.64-.64-1.58-.64-2.81s.21-2.16.64-2.81c.43-.64,1.06-.97,1.88-.97ZM220.7,192.07c-.51,0-.89.25-1.15.75s-.38,1.25-.38,2.25.12,1.75.38,2.25.64.75,1.15.75.89-.25,1.15-.75c.25-.5.38-1.25.38-2.25s-.13-1.75-.38-2.25c-.26-.5-.64-.75-1.15-.75Z"/>
  <line class="st9" x1="253.68" y1="187.62" x2="253.68" y2="184.62"/>
  <line class="st3" x1="253.68" y1="187.62" x2="253.68" y2="184.62"/>
  <path class="st9" d="M248.4,191.42h3.87v.83h-2.97v1.79c.14-.05.29-.09.43-.11.14-.02.29-.04.43-.04.81,0,1.45.23,1.93.67.48.45.72,1.05.72,1.81s-.25,1.4-.74,1.83-1.18.64-2.06.64c-.31,0-.62-.03-.94-.07-.32-.05-.64-.12-.98-.23v-.99c.29.16.59.28.91.36.31.08.64.11.99.11.56,0,1.01-.14,1.34-.44.32-.3.49-.7.49-1.21s-.17-.9-.49-1.2c-.33-.3-.78-.45-1.34-.45-.26,0-.53.03-.79.09-.26.06-.53.15-.8.27v-3.66Z"/>
  <path class="st9" d="M256.86,191.29c.81,0,1.43.33,1.87.97.43.65.65,1.59.65,2.81s-.22,2.17-.65,2.81c-.44.64-1.06.96-1.88.96s-1.44-.32-1.87-.96c-.43-.64-.64-1.58-.64-2.81s.21-2.16.64-2.81c.43-.64,1.06-.97,1.88-.97ZM256.86,192.07c-.51,0-.89.25-1.15.75s-.38,1.25-.38,2.25.12,1.75.38,2.25.64.75,1.15.75.89-.25,1.15-.75c.25-.5.38-1.25.38-2.25s-.13-1.75-.38-2.25c-.26-.5-.64-.75-1.15-.75Z"/>
  <line class="st9" x1="289.83" y1="187.62" x2="289.83" y2="184.62"/>
  <line class="st3" x1="289.83" y1="187.62" x2="289.83" y2="184.62"/>
  <path class="st9" d="M288.73,191.58v.9c-.25-.12-.5-.21-.75-.27-.26-.06-.51-.09-.75-.09-.66,0-1.16.22-1.5.66s-.54,1.11-.58,1.99c.19-.28.43-.5.72-.65s.61-.23.96-.23c.73,0,1.31.23,1.73.67.42.44.64,1.05.64,1.81s-.23,1.35-.67,1.8c-.44.45-1.03.67-1.76.67-.84,0-1.49-.32-1.93-.96-.45-.64-.67-1.58-.67-2.81,0-1.15.27-2.07.82-2.75.54-.68,1.28-1.03,2.2-1.03.24,0,.49.03.75.07.25.05.51.12.79.22ZM286.77,194.67c-.44,0-.79.16-1.05.46-.26.3-.39.72-.39,1.24s.13.95.39,1.25.61.45,1.05.45.79-.15,1.05-.45c.26-.3.39-.72.39-1.25s-.13-.94-.39-1.24c-.26-.3-.61-.46-1.05-.46Z"/>
  <path class="st9" d="M293.01,191.29c.81,0,1.43.33,1.87.97.43.65.65,1.59.65,2.81s-.22,2.17-.65,2.81c-.44.64-1.06.96-1.88.96s-1.44-.32-1.87-.96c-.43-.64-.64-1.58-.64-2.81s.21-2.16.64-2.81c.43-.64,1.06-.97,1.88-.97ZM293.01,192.07c-.51,0-.89.25-1.15.75s-.38,1.25-.38,2.25.12,1.75.38,2.25.64.75,1.15.75.89-.25,1.15-.75c.25-.5.38-1.25.38-2.25s-.13-1.75-.38-2.25c-.26-.5-.64-.75-1.15-.75Z"/>
  <line class="st9" x1="325.99" y1="187.62" x2="325.99" y2="184.62"/>
  <line class="st3" x1="325.99" y1="187.62" x2="325.99" y2="184.62"/>
  <polygon class="st9" points="320.45 191.42 325.14 191.42 325.14 191.84 322.49 198.71 321.46 198.71 323.95 192.25 320.45 192.25 320.45 191.42"/>
  <path class="st9" d="M329.17,191.29c.81,0,1.43.33,1.87.97.43.65.65,1.59.65,2.81s-.22,2.17-.65,2.81c-.44.64-1.06.96-1.88.96s-1.44-.32-1.87-.96c-.43-.64-.64-1.58-.64-2.81s.21-2.16.64-2.81c.43-.64,1.06-.97,1.88-.97ZM329.17,192.07c-.51,0-.89.25-1.15.75s-.38,1.25-.38,2.25.12,1.75.38,2.25.64.75,1.15.75.89-.25,1.15-.75c.25-.5.38-1.25.38-2.25s-.13-1.75-.38-2.25c-.26-.5-.64-.75-1.15-.75Z"/>
  <line class="st9" x1="362.15" y1="187.62" x2="362.15" y2="184.62"/>
  <line class="st3" x1="362.15" y1="187.62" x2="362.15" y2="184.62"/>
  <path class="st9" d="M357.62,193.27c0,.38.11.68.35.89.24.21.57.31,1,.31s.75-.1.99-.31c.24-.21.36-.51.36-.89s-.12-.67-.36-.88c-.24-.21-.57-.32-.99-.32s-.76.11-1,.32c-.24.21-.35.5-.35.88ZM357.98,194.83c-.42-.1-.75-.3-.99-.59-.24-.29-.35-.64-.35-1.06,0-.58.2-1.04.62-1.38.41-.34.98-.51,1.71-.51s1.29.17,1.71.51c.41.34.62.8.62,1.38,0,.42-.12.77-.36,1.06-.24.29-.56.49-.98.59.47.11.84.33,1.11.65.26.32.4.72.4,1.18,0,.71-.22,1.25-.65,1.62-.44.38-1.06.56-1.86.56s-1.42-.18-1.85-.56c-.43-.37-.64-.91-.64-1.62,0-.46.13-.86.4-1.18.26-.32.63-.54,1.11-.65ZM358.97,195.25c-.47,0-.84.13-1.11.38-.27.25-.4.59-.4,1.03s.13.79.4,1.04c.27.25.64.37,1.11.37s.83-.12,1.1-.38c.27-.25.41-.59.41-1.03s-.14-.78-.4-1.03c-.27-.25-.64-.38-1.11-.38Z"/>
  <path class="st9" d="M365.33,191.29c.81,0,1.43.33,1.87.97.43.65.65,1.59.65,2.81s-.22,2.17-.65,2.81c-.44.64-1.06.96-1.88.96s-1.44-.32-1.87-.96c-.43-.64-.64-1.58-.64-2.81s.21-2.16.64-2.81c.43-.64,1.06-.97,1.88-.97ZM365.33,192.07c-.51,0-.89.25-1.15.75s-.38,1.25-.38,2.25.12,1.75.38,2.25.64.75,1.15.75.89-.25,1.15-.75c.25-.5.38-1.25.38-2.25s-.13-1.75-.38-2.25c-.26-.5-.64-.75-1.15-.75Z"/>
  <polygon class="st9" points="144.3 205.13 151.08 205.13 151.08 206.05 148.23 206.05 148.23 213.15 147.14 213.15 147.14 206.05 144.3 206.05 144.3 205.13"/>
  <path class="st9" d="M152.55,206.99c.86,0,1.53.29,2.02.84.48.56.74,1.33.74,2.32s-.25,1.76-.74,2.31c-.49.56-1.17.84-2.02.84s-1.55-.27-2.04-.84c-.48-.55-.73-1.32-.73-2.31s.24-1.76.73-2.32c.48-.55,1.17-.84,2.04-.84ZM152.55,207.83c-.53,0-.95.21-1.25.63s-.46.98-.46,1.69.14,1.29.45,1.7.73.62,1.26.62.95-.2,1.25-.62.46-.98.46-1.7-.15-1.28-.46-1.69-.73-.63-1.25-.63Z"/>
  <polygon class="st9" points="156.92 204.79 157.91 204.79 157.91 209.73 160.86 207.13 162.12 207.13 158.93 209.95 162.25 213.15 160.97 213.15 157.91 210.21 157.91 213.15 156.92 213.15 156.92 204.79"/>
  <path class="st9" d="M167.09,209.61c-.01-.54-.16-.97-.45-1.3-.3-.32-.69-.48-1.18-.48-.55,0-.99.16-1.32.47-.33.31-.53.75-.57,1.31h3.52ZM168.08,209.9v.48h-4.54c.04.68.24,1.21.62,1.56.36.35.87.53,1.53.53.37,0,.75-.04,1.1-.13s.71-.23,1.07-.43v.94c-.35.15-.71.27-1.09.34-.37.07-.76.11-1.13.11-.97,0-1.73-.27-2.29-.82-.56-.55-.84-1.31-.84-2.27s.26-1.76.79-2.34c.53-.57,1.25-.87,2.16-.87.81,0,1.45.26,1.93.78.46.53.7,1.23.7,2.12Z"/>
  <path class="st9" d="M174.7,209.52v3.63h-.99v-3.6c0-.57-.12-.99-.34-1.28-.22-.29-.55-.43-.99-.43-.54,0-.96.18-1.26.52-.31.34-.46.8-.46,1.39v3.4h-.99v-6.02h.99v.94c.23-.35.51-.63.84-.8.32-.18.69-.28,1.11-.28.68,0,1.21.22,1.56.65.35.43.54,1.06.54,1.88Z"/>
  <path class="st9" d="M186.22,205.75v1.14c-.37-.33-.76-.58-1.18-.76-.42-.16-.85-.25-1.31-.25-.92,0-1.63.29-2.11.85-.48.56-.73,1.36-.73,2.42s.24,1.87.73,2.43c.48.56,1.19.84,2.11.84.46,0,.89-.08,1.31-.25.42-.16.8-.42,1.18-.76v1.13c-.38.26-.79.45-1.21.57-.42.12-.87.19-1.34.19-1.21,0-2.17-.36-2.87-1.1-.7-.74-1.04-1.75-1.04-3.05s.34-2.3,1.04-3.05c.7-.74,1.66-1.11,2.87-1.11.48,0,.93.07,1.35.19.42.13.83.32,1.2.57Z"/>
  <path class="st9" d="M190.18,206.99c.86,0,1.53.29,2.02.84.48.56.74,1.33.74,2.32s-.25,1.76-.74,2.31c-.49.56-1.17.84-2.02.84s-1.55-.27-2.04-.84c-.48-.55-.73-1.32-.73-2.31s.24-1.76.73-2.32c.48-.55,1.17-.84,2.04-.84ZM190.18,207.83c-.53,0-.95.21-1.25.63s-.46.98-.46,1.69.14,1.29.45,1.7.73.62,1.26.62.95-.2,1.25-.62.46-.98.46-1.7-.15-1.28-.46-1.69-.73-.63-1.25-.63Z"/>
  <path class="st9" d="M196.97,206.99h0ZM194.48,210.78v-3.64h.99v3.61c0,.57.11.99.33,1.28.22.29.55.43,1,.43.53,0,.96-.16,1.26-.51s.46-.8.46-1.4v-3.41h.99v6.02h-.99v-.92c-.24.37-.53.64-.84.81-.32.16-.68.25-1.1.25-.69,0-1.22-.21-1.57-.64-.36-.42-.54-1.05-.54-1.88Z"/>
  <path class="st9" d="M206.56,209.52v3.63h-.99v-3.6c0-.57-.12-.99-.34-1.28-.22-.29-.55-.43-.99-.43-.54,0-.96.18-1.26.52-.31.34-.46.8-.46,1.39v3.4h-.99v-6.02h.99v.94c.23-.35.51-.63.84-.8.32-.18.69-.28,1.11-.28.68,0,1.21.22,1.56.65.35.43.54,1.06.54,1.88Z"/>
  <path class="st9" d="M209.51,205.43v1.7h2.04v.77h-2.04v3.27c0,.5.07.81.2.95.13.14.41.21.82.21h1.01v.82h-1.01c-.77,0-1.3-.14-1.58-.43-.29-.29-.43-.8-.43-1.55v-3.27h-.73v-.77h.73v-1.7h.99Z"/>
  <path class="st9" d="M218.71,204.8c-.48.84-.84,1.65-1.07,2.45-.24.8-.35,1.62-.35,2.44s.11,1.65.35,2.45c.23.81.58,1.62,1.07,2.44h-.86c-.54-.85-.95-1.66-1.21-2.48-.26-.81-.4-1.62-.4-2.42s.13-1.6.4-2.41c.26-.81.66-1.64,1.21-2.49h.86Z"/>
  <path class="st9" d="M221.58,208.05c.2-.35.46-.62.78-.79.32-.18.7-.26,1.14-.26.73,0,1.32.3,1.78.87.45.58.68,1.34.68,2.29s-.23,1.72-.68,2.29c-.46.57-1.06.86-1.78.86-.44,0-.82-.09-1.14-.25s-.58-.43-.78-.79v.9h-.99v-8.36h.99v3.26ZM224.95,210.15c0-.73-.15-1.29-.45-1.7-.31-.42-.72-.63-1.23-.63s-.93.21-1.23.63c-.31.42-.45.98-.45,1.7s.14,1.3.45,1.72c.3.42.7.62,1.23.62s.92-.2,1.23-.62c.3-.42.45-.99.45-1.72Z"/>
  <path class="st9" d="M227.61,204.79h.99v1.25h-.99v-1.25ZM227.61,207.13h.99v6.02h-.99v-6.02Z"/>
  <rect class="st9" x="230.67" y="204.79" width=".99" height="8.36"/>
  <rect class="st9" x="233.73" y="204.79" width=".99" height="8.36"/>
  <path class="st9" d="M236.79,204.79h.99v1.25h-.99v-1.25ZM236.79,207.13h.99v6.02h-.99v-6.02Z"/>
  <path class="st9" d="M242.18,206.99c.86,0,1.53.29,2.02.84.48.56.74,1.33.74,2.32s-.25,1.76-.74,2.31c-.49.56-1.17.84-2.02.84s-1.55-.27-2.04-.84c-.48-.55-.73-1.32-.73-2.31s.24-1.76.73-2.32c.48-.55,1.17-.84,2.04-.84ZM242.18,207.83c-.53,0-.95.21-1.25.63s-.46.98-.46,1.69.14,1.29.45,1.7.73.62,1.26.62.95-.2,1.25-.62.46-.98.46-1.7-.15-1.28-.46-1.69-.73-.63-1.25-.63Z"/>
  <path class="st9" d="M251.58,209.52v3.63h-.99v-3.6c0-.57-.12-.99-.34-1.28-.22-.29-.55-.43-.99-.43-.54,0-.96.18-1.26.52-.31.34-.46.8-.46,1.39v3.4h-.99v-6.02h.99v.94c.23-.35.51-.63.84-.8.32-.18.69-.28,1.11-.28.68,0,1.21.22,1.56.65.35.43.54,1.06.54,1.88Z"/>
  <path class="st9" d="M258.03,205.43v1.7h2.04v.77h-2.04v3.27c0,.5.07.81.2.95.13.14.41.21.83.21h1.01v.82h-1.01c-.77,0-1.3-.14-1.58-.43s-.43-.8-.43-1.55v-3.27h-.73v-.77h.73v-1.7h.99Z"/>
  <path class="st9" d="M263.69,206.99c.86,0,1.53.29,2.02.84.48.56.74,1.33.74,2.32s-.25,1.76-.74,2.31c-.5.56-1.17.84-2.02.84s-1.55-.27-2.04-.84c-.48-.55-.73-1.32-.73-2.31s.24-1.76.73-2.32c.48-.55,1.17-.84,2.04-.84ZM263.69,207.83c-.53,0-.95.21-1.25.63s-.46.98-.46,1.69.14,1.29.45,1.7c.31.42.73.62,1.26.62s.95-.2,1.25-.62c.31-.42.46-.98.46-1.7s-.15-1.28-.46-1.69c-.31-.42-.73-.63-1.25-.63Z"/>
  <polygon class="st9" points="268.06 204.79 269.05 204.79 269.05 209.73 272 207.13 273.26 207.13 270.07 209.95 273.39 213.15 272.11 213.15 269.05 210.21 269.05 213.15 268.06 213.15 268.06 204.79"/>
  <path class="st9" d="M278.23,209.61c-.01-.54-.16-.97-.45-1.3-.3-.32-.69-.48-1.18-.48-.55,0-.99.16-1.32.47-.33.31-.53.75-.57,1.31h3.52ZM279.22,209.9v.48h-4.54c.04.68.24,1.21.62,1.56.36.35.87.53,1.53.53.37,0,.75-.04,1.1-.13s.71-.23,1.07-.43v.94c-.35.15-.71.27-1.09.34s-.76.11-1.13.11c-.97,0-1.73-.27-2.29-.82s-.84-1.31-.84-2.27.26-1.76.79-2.34c.53-.57,1.25-.87,2.16-.87.81,0,1.45.26,1.92.78.46.53.7,1.23.7,2.12Z"/>
  <path class="st9" d="M285.84,209.52v3.63h-.99v-3.6c0-.57-.12-.99-.34-1.28-.22-.29-.55-.43-.99-.43-.54,0-.96.18-1.26.52-.31.34-.46.8-.46,1.39v3.4h-.99v-6.02h.99v.94c.23-.35.51-.63.84-.8.32-.18.69-.28,1.11-.28.68,0,1.21.22,1.56.65.35.43.54,1.06.54,1.88Z"/>
  <path class="st9" d="M291.65,207.31v.93c-.29-.13-.57-.24-.87-.32-.31-.07-.62-.11-.93-.11-.49,0-.87.08-1.11.23-.24.15-.36.37-.36.67,0,.23.09.41.26.54s.53.26,1.06.37l.34.08c.7.15,1.2.37,1.5.64.29.28.44.66.44,1.14,0,.56-.22,1-.66,1.32-.44.33-1.06.48-1.83.48-.33,0-.66-.03-1.01-.09-.35-.06-.71-.14-1.1-.28v-1.02c.36.2.73.34,1.08.43.35.1.7.14,1.06.14.46,0,.83-.08,1.08-.23.24-.15.37-.38.37-.68,0-.26-.1-.47-.27-.62-.18-.14-.57-.29-1.19-.42l-.34-.08c-.62-.13-1.07-.33-1.33-.59-.28-.26-.41-.63-.41-1.1,0-.56.2-1,.59-1.31.4-.31.97-.46,1.72-.46.36,0,.7.03,1.03.09.32.05.62.13.89.23Z"/>
  <path class="st9" d="M293.39,204.8h.86c.53.85.93,1.67,1.2,2.49.26.81.41,1.62.41,2.41s-.14,1.61-.41,2.42c-.26.81-.67,1.63-1.2,2.48h-.86c.47-.82.82-1.63,1.07-2.44.23-.8.35-1.62.35-2.45s-.12-1.64-.35-2.44c-.24-.8-.59-1.62-1.07-2.45Z"/>
  <line class="st9" x1="62.89" y1="166.41" x2="65.89" y2="166.41"/>
  <line class="st3" x1="62.89" y1="166.41" x2="65.89" y2="166.41"/>
  <path class="st9" d="M16.7,163.48v1.04c-.34-.3-.69-.53-1.07-.69-.38-.15-.77-.23-1.19-.23-.84,0-1.48.26-1.92.77s-.66,1.24-.66,2.2.22,1.7.66,2.21c.44.51,1.08.76,1.92.76.42,0,.81-.07,1.19-.23.38-.15.73-.38,1.07-.69v1.03c-.35.24-.72.41-1.1.52s-.79.17-1.22.17c-1.1,0-1.97-.33-2.61-1-.64-.67-.95-1.59-.95-2.77s.31-2.09.95-2.77c.64-.67,1.51-1.01,2.61-1.01.44,0,.85.06,1.23.17.38.12.75.29,1.09.52Z"/>
  <path class="st9" d="M22.73,166.91v3.3h-.9v-3.27c0-.52-.11-.9-.31-1.16-.2-.26-.5-.39-.9-.39-.49,0-.87.16-1.15.47-.28.31-.42.73-.42,1.26v3.09h-.9v-7.6h.9v2.98c.21-.32.46-.57.76-.73.29-.16.63-.25,1.01-.25.62,0,1.1.2,1.42.59.32.39.49.96.49,1.71Z"/>
  <path class="st9" d="M28.3,166.99c-.01-.49-.15-.88-.41-1.18-.27-.29-.63-.44-1.07-.44-.5,0-.9.15-1.2.43-.3.28-.48.68-.52,1.19h3.2ZM29.2,167.25v.44h-4.13c.04.62.22,1.1.56,1.42.33.32.79.48,1.39.48.34,0,.68-.04,1-.12.32-.08.65-.21.97-.39v.85c-.32.14-.65.25-.99.31-.34.06-.69.1-1.03.1-.88,0-1.57-.25-2.08-.75s-.76-1.19-.76-2.06.24-1.6.72-2.13c.48-.52,1.14-.79,1.96-.79.74,0,1.32.24,1.75.71.42.48.64,1.12.64,1.93Z"/>
  <path class="st9" d="M34.93,165.79c.22-.4.49-.69.8-.89.31-.19.68-.29,1.11-.29.56,0,1,.2,1.31.6.31.4.47.97.47,1.7v3.3h-.9v-3.27c0-.52-.1-.91-.28-1.17-.19-.25-.47-.38-.85-.38-.47,0-.84.16-1.11.47-.27.31-.4.73-.4,1.26v3.09h-.9v-3.27c0-.52-.1-.91-.28-1.17-.19-.25-.48-.38-.86-.38-.46,0-.83.16-1.1.47-.27.31-.4.73-.4,1.26v3.09h-.9v-5.47h.9v.85c.2-.33.45-.58.74-.74.28-.16.62-.24,1.02-.24s.73.1,1.01.3c.28.2.48.5.62.88Z"/>
  <path class="st9" d="M45.42,169.17v-1.96h-1.61v-.81h2.59v3.13c-.38.28-.8.48-1.26.61-.46.13-.95.2-1.47.2-1.14,0-2.04-.33-2.68-.99s-.96-1.59-.96-2.78.32-2.11.96-2.78c.64-.66,1.54-1,2.68-1,.47,0,.92.06,1.35.18.43.12.83.29,1.19.51v1.05c-.37-.3-.76-.53-1.17-.69s-.84-.24-1.29-.24c-.9,0-1.57.25-2.01.75-.45.5-.67,1.24-.67,2.22s.22,1.73.67,2.23c.44.5,1.11.74,2.01.74.34,0,.65-.03.93-.09.28-.06.52-.15.74-.28Z"/>
  <path class="st9" d="M48.2,162.92h2.23c.81,0,1.43.19,1.85.56.42.37.63.91.63,1.62s-.21,1.27-.63,1.63c-.42.37-1.04.55-1.85.55h-1.24v2.93h-.99v-7.29ZM49.19,163.73v2.74h1.24c.46,0,.81-.11,1.06-.35s.38-.58.38-1.02-.13-.77-.38-1.01c-.25-.24-.6-.36-1.06-.36h-1.24Z"/>
  <polygon class="st9" points="53.23 162.92 59.39 162.92 59.39 163.75 56.8 163.75 56.8 170.21 55.81 170.21 55.81 163.75 53.23 163.75 53.23 162.92"/>
  <line class="st9" x1="62.89" y1="143.98" x2="65.89" y2="143.98"/>
  <line class="st3" x1="62.89" y1="143.98" x2="65.89" y2="143.98"/>
  <polygon class="st9" points="22.01 140.49 23 140.49 23 146.95 26.55 146.95 26.55 147.78 22.01 147.78 22.01 140.49"/>
  <rect class="st9" x="27.54" y="140.18" width=".9" height="7.6"/>
  <path class="st9" d="M34.6,144.66v3.12h-.9v-.83c-.21.34-.47.58-.77.73-.3.15-.68.23-1.12.23-.56,0-1.01-.15-1.34-.46-.33-.31-.49-.73-.49-1.26,0-.61.2-1.07.62-1.39.41-.31,1.02-.47,1.84-.47h1.26v-.09c0-.41-.14-.73-.41-.96-.27-.22-.65-.34-1.14-.34-.32,0-.62.04-.92.12-.3.08-.58.19-.85.33v-.83c.32-.12.64-.22.95-.28.31-.06.61-.1.91-.1.79,0,1.38.21,1.77.62.39.41.59,1.03.59,1.86ZM32.81,145.03c-.73,0-1.23.09-1.51.25-.28.17-.42.45-.42.85,0,.32.1.58.31.76.21.19.5.28.86.28.5,0,.9-.17,1.2-.53.3-.35.45-.82.45-1.41v-.2h-.89Z"/>
  <path class="st9" d="M40.86,140.73v.96c-.38-.18-.73-.31-1.06-.4-.34-.08-.66-.13-.96-.13-.54,0-.96.11-1.25.31-.29.21-.43.51-.43.89,0,.32.09.57.29.73.19.17.56.3,1.1.4l.6.12c.73.14,1.27.39,1.62.74.35.36.53.83.53,1.42,0,.71-.24,1.24-.71,1.6-.48.36-1.17.54-2.08.54-.35,0-.72-.04-1.11-.11s-.79-.18-1.2-.34v-1.02c.4.23.79.4,1.17.51.38.12.76.17,1.14.17.56,0,.99-.11,1.3-.33.3-.22.46-.53.46-.95,0-.36-.11-.64-.33-.84-.22-.2-.58-.35-1.08-.45l-.6-.12c-.74-.14-1.27-.37-1.6-.69-.33-.31-.49-.74-.49-1.3,0-.64.22-1.15.68-1.52.45-.37,1.08-.56,1.88-.56.34,0,.68.03,1.04.09.35.06.71.16,1.09.28Z"/>
  <polygon class="st9" points="42.84 140.49 44.31 140.49 46.17 145.45 48.04 140.49 49.51 140.49 49.51 147.78 48.55 147.78 48.55 141.38 46.67 146.38 45.68 146.38 43.8 141.38 43.8 147.78 42.84 147.78 42.84 140.49"/>
  <path class="st9" d="M53.55,142.18c.78,0,1.39.26,1.84.76.44.51.67,1.21.67,2.11s-.23,1.6-.67,2.1c-.45.51-1.06.76-1.84.76s-1.41-.25-1.85-.76c-.44-.5-.66-1.2-.66-2.1s.22-1.6.66-2.11c.44-.5,1.06-.76,1.85-.76ZM53.55,142.94c-.48,0-.86.19-1.14.57-.28.38-.42.89-.42,1.54s.13,1.17.41,1.55.66.56,1.15.56.86-.18,1.14-.56.42-.89.42-1.55-.14-1.16-.42-1.54c-.28-.38-.66-.57-1.14-.57Z"/>
  <rect class="st9" x="57.55" y="140.18" width=".9" height="7.6"/>
  <line class="st9" x1="62.89" y1="121.56" x2="65.89" y2="121.56"/>
  <line class="st3" x1="62.89" y1="121.56" x2="65.89" y2="121.56"/>
  <path class="st9" d="M13.64,118.63v1.04c-.34-.3-.69-.53-1.07-.69-.38-.15-.77-.23-1.19-.23-.84,0-1.48.26-1.92.77-.44.51-.66,1.24-.66,2.2s.22,1.7.66,2.21,1.08.76,1.92.76c.42,0,.81-.07,1.19-.23.38-.15.73-.38,1.07-.69v1.03c-.35.24-.72.41-1.1.52s-.79.17-1.22.17c-1.1,0-1.97-.33-2.61-1-.64-.67-.95-1.59-.95-2.77s.31-2.09.95-2.77c.64-.67,1.51-1.01,2.61-1.01.44,0,.85.06,1.23.17.38.12.75.29,1.09.52Z"/>
  <path class="st9" d="M19.67,122.06v3.3h-.9v-3.27c0-.52-.11-.9-.31-1.16-.2-.26-.5-.39-.9-.39-.49,0-.87.16-1.15.47-.28.31-.42.73-.42,1.26v3.09h-.9v-7.6h.9v2.98c.21-.32.46-.57.76-.73.29-.16.63-.25,1.01-.25.62,0,1.1.2,1.42.59s.49.96.49,1.71Z"/>
  <path class="st9" d="M25.24,122.14c-.01-.49-.15-.88-.41-1.18-.27-.29-.63-.44-1.07-.44-.5,0-.9.15-1.2.43-.3.28-.48.68-.52,1.19h3.2ZM26.14,122.4v.44h-4.13c.04.62.22,1.1.56,1.42.33.32.79.48,1.39.48.34,0,.68-.04,1-.12.32-.08.65-.21.97-.39v.85c-.32.14-.65.25-.99.31s-.69.1-1.03.1c-.88,0-1.57-.25-2.08-.75s-.76-1.19-.76-2.06.24-1.6.72-2.13c.48-.52,1.14-.79,1.96-.79.74,0,1.32.24,1.75.71.42.48.64,1.12.64,1.93Z"/>
  <path class="st9" d="M31.87,120.94c.22-.4.49-.69.8-.89.31-.19.68-.29,1.11-.29.56,0,1,.2,1.31.6.31.4.47.97.47,1.7v3.3h-.9v-3.27c0-.52-.1-.91-.28-1.17-.19-.25-.47-.38-.85-.38-.47,0-.84.16-1.11.47-.27.31-.4.73-.4,1.26v3.09h-.9v-3.27c0-.52-.1-.91-.28-1.17-.19-.25-.48-.38-.86-.38-.46,0-.83.16-1.1.47-.27.31-.4.73-.4,1.26v3.09h-.9v-5.47h.9v.85c.2-.33.45-.58.74-.74.28-.16.62-.24,1.02-.24s.73.1,1.01.3c.28.2.48.5.62.88Z"/>
  <path class="st9" d="M37.39,118.07h2.03c1.41,0,2.45.3,3.11.88.66.59.99,1.51.99,2.76s-.34,2.18-1,2.77c-.66.59-1.7.88-3.1.88h-2.03v-7.29ZM38.38,118.88v5.67h1.19c1,0,1.74-.22,2.21-.68.46-.46.7-1.18.7-2.16s-.24-1.69-.7-2.15c-.47-.45-1.21-.68-2.21-.68h-1.19Z"/>
  <path class="st9" d="M47.22,119.76h0ZM44.96,123.2v-3.31h.9v3.28c0,.52.1.9.3,1.16s.5.39.91.39c.48,0,.87-.15,1.15-.46.28-.31.42-.73.42-1.27v-3.1h.9v5.47h-.9v-.84c-.22.34-.48.58-.76.74-.29.15-.62.23-1,.23-.63,0-1.11-.19-1.43-.58-.33-.38-.49-.95-.49-1.71Z"/>
  <path class="st9" d="M55.67,122.24v3.12h-.9v-.83c-.21.34-.47.58-.77.73-.3.15-.68.23-1.12.23-.56,0-1.01-.15-1.34-.46-.33-.31-.49-.73-.49-1.26,0-.61.2-1.07.62-1.39.41-.31,1.02-.47,1.84-.47h1.26v-.09c0-.41-.14-.73-.41-.96-.27-.22-.65-.34-1.14-.34-.32,0-.62.04-.92.12-.3.08-.58.19-.85.33v-.83c.32-.12.64-.22.95-.28.31-.06.61-.1.91-.1.79,0,1.38.21,1.77.62.39.41.59,1.03.59,1.86ZM53.88,122.61c-.73,0-1.23.09-1.51.25-.28.17-.42.45-.42.85,0,.32.1.58.31.76.21.19.5.28.86.28.5,0,.9-.17,1.2-.53.3-.35.45-.82.45-1.41v-.2h-.89Z"/>
  <rect class="st9" x="57.52" y="117.76" width=".9" height="7.6"/>
  <line class="st9" x1="62.89" y1="99.14" x2="65.89" y2="99.14"/>
  <line class="st3" x1="62.89" y1="99.14" x2="65.89" y2="99.14"/>
  <path class="st9" d="M24.71,95.64h2.52c.75,0,1.33.16,1.74.47.4.32.61.76.61,1.33,0,.45-.11.81-.32,1.07-.21.26-.51.43-.91.49.48.11.86.33,1.13.66.26.33.4.74.4,1.23,0,.66-.23,1.16-.67,1.51-.44.36-1.07.53-1.88.53h-2.62v-7.29ZM25.7,96.45v2.2h1.46c.48,0,.83-.09,1.07-.27s.36-.45.36-.83c0-.36-.12-.64-.36-.82-.24-.18-.59-.28-1.07-.28h-1.46ZM25.7,99.45v2.67h1.58c.53,0,.92-.11,1.18-.33.25-.22.38-.55.38-1.01s-.13-.78-.38-1c-.26-.22-.65-.33-1.18-.33h-1.58Z"/>
  <path class="st9" d="M31.53,95.33h.9v1.14h-.9v-1.14ZM31.53,97.46h.9v5.47h-.9v-5.47Z"/>
  <path class="st9" d="M36.43,97.33c.78,0,1.39.26,1.84.76.44.51.67,1.21.67,2.11s-.23,1.6-.67,2.1c-.45.51-1.06.76-1.84.76s-1.41-.25-1.85-.76c-.44-.5-.66-1.2-.66-2.1s.22-1.6.66-2.11c.44-.5,1.06-.76,1.85-.76ZM36.43,98.09c-.48,0-.86.19-1.14.57-.28.38-.42.89-.42,1.54s.13,1.17.41,1.55.66.56,1.15.56.86-.18,1.14-.56.42-.89.42-1.55-.14-1.16-.42-1.54c-.28-.38-.66-.57-1.14-.57Z"/>
  <path class="st9" d="M45.44,101.89v-1.96h-1.61v-.81h2.59v3.13c-.38.28-.8.48-1.26.61-.46.13-.95.2-1.47.2-1.14,0-2.04-.33-2.68-.99-.64-.66-.96-1.59-.96-2.78s.32-2.11.96-2.78c.64-.66,1.54-1,2.68-1,.47,0,.92.06,1.35.18.43.12.83.29,1.19.51v1.05c-.37-.3-.76-.53-1.17-.69-.41-.16-.84-.24-1.29-.24-.9,0-1.57.25-2.01.75-.45.5-.67,1.24-.67,2.22s.22,1.73.67,2.23c.44.5,1.11.74,2.01.74.34,0,.65-.03.93-.09.28-.06.52-.15.74-.28Z"/>
  <path class="st9" d="M48.22,95.64h2.23c.81,0,1.43.19,1.85.56.42.37.63.91.63,1.62s-.21,1.27-.63,1.63c-.42.37-1.04.55-1.85.55h-1.24v2.93h-.99v-7.29ZM49.21,96.45v2.74h1.24c.46,0,.81-.11,1.06-.35.25-.24.38-.58.38-1.02s-.13-.77-.38-1.01c-.25-.24-.6-.36-1.06-.36h-1.24Z"/>
  <polygon class="st9" points="53.25 95.64 59.41 95.64 59.41 96.47 56.82 96.47 56.82 102.93 55.83 102.93 55.83 96.47 53.25 96.47 53.25 95.64"/>
  <line class="st9" x1="62.89" y1="76.71" x2="65.89" y2="76.71"/>
  <line class="st3" x1="62.89" y1="76.71" x2="65.89" y2="76.71"/>
  <path class="st9" d="M23.57,73.22h2.52c.75,0,1.33.16,1.74.47.4.32.61.76.61,1.33,0,.45-.11.81-.32,1.07-.21.26-.51.43-.91.49.48.11.86.33,1.13.66.26.33.4.74.4,1.23,0,.66-.23,1.16-.67,1.51-.44.36-1.07.53-1.88.53h-2.62v-7.29ZM24.56,74.03v2.2h1.46c.48,0,.83-.09,1.07-.27.24-.18.36-.45.36-.83,0-.36-.12-.64-.36-.82-.24-.18-.59-.28-1.07-.28h-1.46ZM24.56,77.03v2.67h1.58c.53,0,.92-.11,1.18-.33.25-.22.38-.55.38-1.01s-.13-.78-.38-1c-.26-.22-.65-.33-1.18-.33h-1.58Z"/>
  <path class="st9" d="M34.67,77.39v3.12h-.9v-.83c-.21.34-.47.58-.77.73-.3.15-.68.23-1.12.23-.56,0-1.01-.15-1.34-.46s-.49-.73-.49-1.26c0-.61.2-1.07.62-1.39.41-.31,1.02-.47,1.84-.47h1.26v-.09c0-.41-.14-.73-.41-.96-.27-.22-.65-.34-1.14-.34-.32,0-.62.04-.92.12-.3.08-.58.19-.85.33v-.83c.32-.12.64-.22.95-.28.31-.06.61-.1.91-.1.79,0,1.38.21,1.77.62.39.41.59,1.03.59,1.86ZM32.88,77.76c-.73,0-1.23.09-1.51.25-.28.17-.42.45-.42.85,0,.32.1.58.31.76.21.19.5.28.86.28.5,0,.9-.17,1.2-.53.3-.35.45-.82.45-1.41v-.2h-.89Z"/>
  <path class="st9" d="M37.41,73.49v1.55h1.85v.7h-1.85v2.97c0,.45.06.74.18.86.12.13.37.19.75.19h.92v.75h-.92c-.7,0-1.18-.13-1.44-.39-.26-.26-.39-.73-.39-1.41v-2.97h-.66v-.7h.66v-1.55h.9Z"/>
  <path class="st9" d="M45.45,79.47v-1.96h-1.61v-.81h2.59v3.13c-.38.28-.8.48-1.26.61-.46.13-.95.2-1.47.2-1.14,0-2.04-.33-2.68-.99s-.96-1.59-.96-2.78.32-2.11.96-2.78c.64-.66,1.54-1,2.68-1,.47,0,.92.06,1.35.18.43.12.83.29,1.19.51v1.05c-.37-.3-.76-.53-1.17-.69-.41-.16-.84-.24-1.29-.24-.9,0-1.57.25-2.01.75-.45.5-.67,1.24-.67,2.22s.22,1.73.67,2.23c.44.5,1.11.74,2.01.74.34,0,.65-.03.93-.09.28-.06.52-.15.74-.28Z"/>
  <path class="st9" d="M48.23,73.22h2.23c.81,0,1.43.19,1.85.56.42.37.63.91.63,1.62s-.21,1.27-.63,1.63c-.42.37-1.04.55-1.85.55h-1.24v2.93h-.99v-7.29ZM49.22,74.03v2.74h1.24c.46,0,.81-.11,1.06-.35.25-.24.38-.58.38-1.02s-.13-.77-.38-1.01c-.25-.24-.6-.36-1.06-.36h-1.24Z"/>
  <polygon class="st9" points="53.26 73.22 59.42 73.22 59.42 74.05 56.83 74.05 56.83 80.51 55.84 80.51 55.84 74.05 53.26 74.05 53.26 73.22"/>
  <line class="st9" x1="62.89" y1="54.29" x2="65.89" y2="54.29"/>
  <line class="st3" x1="62.89" y1="54.29" x2="65.89" y2="54.29"/>
  <path class="st9" d="M14.52,51.36v1.04c-.34-.3-.69-.53-1.07-.69-.38-.15-.77-.23-1.19-.23-.84,0-1.48.26-1.92.77-.44.51-.66,1.24-.66,2.2s.22,1.7.66,2.21c.44.51,1.08.76,1.92.76.42,0,.81-.07,1.19-.23.38-.15.73-.38,1.07-.69v1.03c-.35.24-.72.41-1.1.52s-.79.17-1.22.17c-1.1,0-1.97-.33-2.61-1s-.95-1.59-.95-2.77.31-2.09.95-2.77c.64-.67,1.51-1.01,2.61-1.01.44,0,.85.06,1.23.17.38.12.75.29,1.09.52Z"/>
  <path class="st9" d="M20.54,54.79v3.3h-.9v-3.27c0-.52-.11-.9-.31-1.16-.2-.26-.5-.39-.9-.39-.49,0-.87.16-1.15.47-.28.31-.42.73-.42,1.26v3.09h-.9v-7.6h.9v2.98c.21-.32.46-.57.76-.73.29-.16.63-.25,1.01-.25.62,0,1.1.2,1.42.59s.49.96.49,1.71Z"/>
  <path class="st9" d="M26.12,54.87c-.01-.49-.15-.88-.41-1.18-.27-.29-.63-.44-1.07-.44-.5,0-.9.15-1.2.43-.3.28-.48.68-.52,1.19h3.2ZM27.02,55.13v.44h-4.13c.04.62.22,1.1.56,1.42.33.32.79.48,1.39.48.34,0,.68-.04,1-.12s.65-.21.97-.39v.85c-.32.14-.65.25-.99.31s-.69.1-1.03.1c-.88,0-1.57-.25-2.08-.75s-.76-1.19-.76-2.06.24-1.6.72-2.13c.48-.52,1.14-.79,1.96-.79.74,0,1.32.24,1.75.71.42.48.64,1.12.64,1.93Z"/>
  <path class="st9" d="M32.75,53.67c.22-.4.49-.69.8-.89.31-.19.68-.29,1.11-.29.56,0,1,.2,1.31.6.31.4.47.97.47,1.7v3.3h-.9v-3.27c0-.52-.1-.91-.28-1.17-.19-.25-.47-.38-.85-.38-.47,0-.84.16-1.11.47-.27.31-.4.73-.4,1.26v3.09h-.9v-3.27c0-.52-.1-.91-.28-1.17-.19-.25-.48-.38-.86-.38-.46,0-.83.16-1.1.47-.27.31-.4.73-.4,1.26v3.09h-.9v-5.47h.9v.85c.2-.33.45-.58.74-.74.28-.16.62-.24,1.02-.24s.73.1,1.01.3c.28.2.48.5.62.88Z"/>
  <path class="st9" d="M38.27,50.8h2.03c1.41,0,2.45.3,3.11.88.66.59.99,1.51.99,2.76s-.34,2.18-1,2.77c-.66.59-1.7.88-3.1.88h-2.03v-7.29ZM39.26,51.61v5.67h1.19c1,0,1.74-.22,2.21-.68.46-.46.7-1.18.7-2.16s-.24-1.69-.7-2.15c-.47-.45-1.21-.68-2.21-.68h-1.19Z"/>
  <polygon class="st9" points="45.97 50.8 50.16 50.8 50.16 51.63 46.96 51.63 46.96 53.78 49.85 53.78 49.85 54.61 46.96 54.61 46.96 58.09 45.97 58.09 45.97 50.8"/>
  <polygon class="st9" points="51.72 50.8 53.19 50.8 55.05 55.76 56.92 50.8 58.39 50.8 58.39 58.09 57.43 58.09 57.43 51.69 55.55 56.69 54.56 56.69 52.68 51.69 52.68 58.09 51.72 58.09 51.72 50.8"/>
  <line class="st9" x1="62.89" y1="31.87" x2="65.89" y2="31.87"/>
  <line class="st3" x1="62.89" y1="31.87" x2="65.89" y2="31.87"/>
  <path class="st9" d="M19.09,28.93v1.04c-.34-.3-.69-.53-1.07-.69-.38-.15-.77-.23-1.19-.23-.84,0-1.48.26-1.92.77-.44.51-.66,1.24-.66,2.2s.22,1.7.66,2.21c.44.51,1.08.76,1.92.76.42,0,.81-.07,1.19-.23.38-.15.73-.38,1.07-.69v1.03c-.35.24-.72.41-1.1.52-.38.11-.79.17-1.22.17-1.1,0-1.97-.33-2.61-1s-.95-1.59-.95-2.77.31-2.09.95-2.77c.64-.67,1.51-1.01,2.61-1.01.44,0,.85.06,1.23.17.38.12.75.29,1.09.52Z"/>
  <path class="st9" d="M25.12,32.36v3.3h-.9v-3.27c0-.52-.11-.9-.31-1.16-.2-.26-.5-.39-.9-.39-.49,0-.87.16-1.15.47-.28.31-.42.73-.42,1.26v3.09h-.9v-7.6h.9v2.98c.21-.32.46-.57.76-.73.29-.16.63-.25,1.01-.25.62,0,1.1.2,1.42.59s.49.96.49,1.71Z"/>
  <path class="st9" d="M30.69,32.44c-.01-.49-.15-.88-.41-1.18-.27-.29-.63-.44-1.07-.44-.5,0-.9.15-1.2.43-.3.28-.48.68-.52,1.19h3.2ZM31.59,32.7v.44h-4.13c.04.62.22,1.1.56,1.42.33.32.79.48,1.39.48.34,0,.68-.04,1-.12s.65-.21.97-.39v.85c-.32.14-.65.25-.99.31s-.69.1-1.03.1c-.88,0-1.57-.25-2.08-.75s-.76-1.19-.76-2.06.24-1.6.72-2.13c.48-.52,1.14-.79,1.96-.79.74,0,1.32.24,1.75.71.42.48.64,1.12.64,1.93Z"/>
  <path class="st9" d="M37.32,31.24c.22-.4.49-.69.8-.89.31-.19.68-.29,1.11-.29.56,0,1,.2,1.31.6.31.4.47.97.47,1.7v3.3h-.9v-3.27c0-.52-.1-.91-.28-1.17-.19-.25-.47-.38-.85-.38-.47,0-.84.16-1.11.47-.27.31-.4.73-.4,1.26v3.09h-.9v-3.27c0-.52-.1-.91-.28-1.17-.19-.25-.48-.38-.86-.38-.46,0-.83.16-1.1.47-.27.31-.4.73-.4,1.26v3.09h-.9v-5.47h.9v.85c.2-.33.45-.58.74-.74.28-.16.62-.24,1.02-.24s.73.1,1.01.3c.28.2.48.5.62.88Z"/>
  <path class="st9" d="M42.84,28.37h2.23c.81,0,1.43.19,1.85.56.42.37.63.91.63,1.62s-.21,1.27-.63,1.63c-.42.37-1.04.55-1.85.55h-1.24v2.93h-.99v-7.29ZM43.83,29.18v2.74h1.24c.46,0,.81-.11,1.06-.35.25-.24.38-.58.38-1.02s-.13-.77-.38-1.01c-.25-.24-.6-.36-1.06-.36h-1.24Z"/>
  <path class="st9" d="M48.61,28.06h.9v1.14h-.9v-1.14ZM48.61,30.19h.9v5.47h-.9v-5.47Z"/>
  <rect class="st9" x="51.39" y="28.06" width=".9" height="7.6"/>
  <path class="st9" d="M57.95,32.44c-.01-.49-.15-.88-.41-1.18-.27-.29-.63-.44-1.07-.44-.5,0-.9.15-1.2.43s-.48.68-.52,1.19h3.2ZM58.85,32.7v.44h-4.13c.04.62.22,1.1.56,1.42.33.32.79.48,1.39.48.34,0,.68-.04,1-.12s.65-.21.97-.39v.85c-.32.14-.65.25-.99.31-.34.06-.69.1-1.03.1-.88,0-1.57-.25-2.08-.75-.51-.5-.76-1.19-.76-2.06s.24-1.6.72-2.13c.48-.52,1.14-.79,1.96-.79.74,0,1.32.24,1.75.71.42.48.64,1.12.64,1.93Z"/>
  <g class="st24">
    <line class="st5" x1="69.27" y1="166.41" x2="73.97" y2="166.41"/>
  </g>
  <g class="st14">
    <path class="st8" d="M73.97,169.41c.8,0,1.56-.32,2.12-.88.56-.56.88-1.33.88-2.12s-.32-1.56-.88-2.12c-.56-.56-1.33-.88-2.12-.88s-1.56.32-2.12.88c-.56.56-.88,1.33-.88,2.12s.32,1.56.88,2.12c.56.56,1.33.88,2.12.88Z"/>
  </g>
  <g class="st17">
    <line class="st5" x1="69.27" y1="143.98" x2="74.44" y2="143.98"/>
  </g>
  <g class="st15">
    <path class="st8" d="M74.44,146.98c.8,0,1.56-.32,2.12-.88s.88-1.33.88-2.12-.32-1.56-.88-2.12-1.33-.88-2.12-.88-1.56.32-2.12.88c-.56.56-.88,1.33-.88,2.12s.32,1.56.88,2.12c.56.56,1.33.88,2.12.88Z"/>
  </g>
  <g class="st16">
    <line class="st4" x1="69.27" y1="121.56" x2="75.97" y2="121.56"/>
  </g>
  <g class="st22">
    <path class="st7" d="M75.97,124.56c.8,0,1.56-.32,2.12-.88.56-.56.88-1.33.88-2.12s-.32-1.56-.88-2.12c-.56-.56-1.33-.88-2.12-.88s-1.56.32-2.12.88-.88,1.33-.88,2.12.32,1.56.88,2.12c.56.56,1.33.88,2.12.88Z"/>
  </g>
  <g class="st19">
    <line class="st5" x1="69.27" y1="99.14" x2="89.16" y2="99.14"/>
  </g>
  <g class="st18">
    <path class="st8" d="M89.16,102.14c.8,0,1.56-.32,2.12-.88s.88-1.33.88-2.12-.32-1.56-.88-2.12c-.56-.56-1.33-.88-2.12-.88s-1.56.32-2.12.88c-.56.56-.88,1.33-.88,2.12s.32,1.56.88,2.12,1.33.88,2.12.88Z"/>
  </g>
  <g class="st21">
    <line class="st4" x1="69.27" y1="76.71" x2="127.12" y2="76.71"/>
  </g>
  <g class="st20">
    <path class="st7" d="M127.12,79.71c.8,0,1.56-.32,2.12-.88.56-.56.88-1.33.88-2.12s-.32-1.56-.88-2.12c-.56-.56-1.33-.88-2.12-.88s-1.56.32-2.12.88c-.56.56-.88,1.33-.88,2.12s.32,1.56.88,2.12c.56.56,1.33.88,2.12.88Z"/>
  </g>
  <g class="st11">
    <line class="st4" x1="69.27" y1="54.29" x2="195.82" y2="54.29"/>
  </g>
  <g class="st10">
    <path class="st7" d="M195.82,57.29c.8,0,1.56-.32,2.12-.88.56-.56.88-1.33.88-2.12s-.32-1.56-.88-2.12-1.33-.88-2.12-.88-1.56.32-2.12.88-.88,1.33-.88,2.12.32,1.56.88,2.12c.56.56,1.33.88,2.12.88Z"/>
  </g>
  <g class="st13">
    <line class="st5" x1="69.27" y1="31.87" x2="350.22" y2="31.87"/>
  </g>
  <g class="st12">
    <path class="st8" d="M350.22,34.87c.8,0,1.56-.32,2.12-.88.56-.56.88-1.33.88-2.12s-.32-1.56-.88-2.12c-.56-.56-1.33-.88-2.12-.88s-1.56.32-2.12.88c-.56.56-.88,1.33-.88,2.12s.32,1.56.88,2.12c.56.56,1.33.88,2.12.88Z"/>
  </g>
  <line class="st1" x1="62.89" y1="166.41" x2="62.89" y2="31.87"/>
  <line class="st1" x1="72.89" y1="187.62" x2="362.15" y2="187.62"/>
  <path class="st9" d="M80.04,161.75c.81,0,1.43.33,1.87.97.43.65.65,1.59.65,2.81s-.22,2.17-.65,2.81c-.44.64-1.06.96-1.88.96s-1.44-.32-1.87-.96c-.43-.64-.64-1.58-.64-2.81s.21-2.16.64-2.81c.43-.64,1.06-.97,1.88-.97ZM80.04,162.53c-.51,0-.89.25-1.15.75s-.38,1.25-.38,2.25.12,1.75.38,2.25.64.75,1.15.75.89-.25,1.15-.75c.25-.5.38-1.25.38-2.25s-.13-1.75-.38-2.25c-.26-.5-.64-.75-1.15-.75Z"/>
  <rect class="st9" x="84.29" y="167.93" width="1.03" height="1.24"/>
  <path class="st9" d="M90.46,165.24c.47.1.84.31,1.1.63.26.32.4.72.4,1.18,0,.72-.25,1.28-.74,1.67-.5.39-1.2.58-2.11.58-.31,0-.63-.03-.95-.09-.32-.05-.66-.14-1-.26v-.95c.27.16.57.28.9.36.32.08.66.12,1.02.12.62,0,1.09-.12,1.41-.36.32-.24.49-.6.49-1.07,0-.42-.15-.76-.45-1-.3-.24-.72-.37-1.26-.37h-.85v-.81h.89c.48,0,.85-.09,1.11-.29.26-.19.39-.47.39-.84s-.14-.66-.4-.86c-.27-.2-.65-.3-1.14-.3-.27,0-.56.03-.87.09-.31.06-.65.15-1.02.27v-.88c.37-.1.72-.18,1.05-.23.32-.05.63-.08.93-.08.74,0,1.33.17,1.77.51.44.34.66.8.66,1.38,0,.4-.12.74-.35,1.02-.23.28-.56.48-.98.58Z"/>
  <path class="st9" d="M93.74,161.88h2.52c.75,0,1.33.16,1.74.47.4.32.61.76.61,1.33,0,.45-.11.81-.32,1.07-.21.26-.51.43-.91.49.48.11.86.33,1.13.66.26.33.4.74.4,1.23,0,.66-.23,1.16-.67,1.51-.44.36-1.07.53-1.88.53h-2.62v-7.29ZM94.73,162.69v2.2h1.46c.48,0,.83-.09,1.07-.27s.36-.45.36-.83c0-.36-.12-.64-.36-.82s-.59-.28-1.07-.28h-1.46ZM94.73,165.69v2.67h1.58c.53,0,.92-.11,1.18-.33.25-.22.38-.55.38-1.01s-.13-.78-.38-1c-.26-.22-.65-.33-1.18-.33h-1.58Z"/>
  <path class="st9" d="M80.51,139.32c.81,0,1.43.33,1.87.97.43.65.65,1.59.65,2.81s-.22,2.17-.65,2.81c-.44.64-1.06.96-1.88.96s-1.44-.32-1.87-.96-.64-1.58-.64-2.81.21-2.16.64-2.81c.43-.64,1.06-.97,1.88-.97ZM80.51,140.1c-.51,0-.89.25-1.15.75s-.38,1.25-.38,2.25.12,1.75.38,2.25.64.75,1.15.75.89-.25,1.15-.75c.25-.5.38-1.25.38-2.25s-.13-1.75-.38-2.25c-.26-.5-.64-.75-1.15-.75Z"/>
  <rect class="st9" x="84.76" y="145.5" width="1.03" height="1.24"/>
  <path class="st9" d="M90.39,139.45h1.24v4.75h1.04v.82h-1.04v1.72h-.98v-1.72h-3.29v-.95l3.03-4.62ZM90.65,140.31l-2.49,3.89h2.49v-3.89Z"/>
  <path class="st9" d="M94.21,139.45h2.52c.75,0,1.33.16,1.74.47.4.32.61.76.61,1.33,0,.45-.11.81-.32,1.07-.21.26-.51.43-.91.49.48.11.86.33,1.13.66.26.33.4.74.4,1.23,0,.66-.23,1.16-.67,1.51-.44.36-1.07.53-1.88.53h-2.62v-7.29ZM95.2,140.26v2.2h1.46c.48,0,.83-.09,1.07-.27s.36-.45.36-.83c0-.36-.12-.64-.36-.82-.24-.18-.59-.28-1.07-.28h-1.46ZM95.2,143.26v2.67h1.58c.53,0,.92-.11,1.18-.33.25-.22.38-.55.38-1.01s-.13-.78-.38-1c-.26-.22-.65-.33-1.18-.33h-1.58Z"/>
  <path class="st9" d="M82.04,116.9c.81,0,1.43.33,1.87.97.43.65.65,1.59.65,2.81s-.22,2.17-.65,2.81c-.44.64-1.06.96-1.88.96s-1.44-.32-1.87-.96-.64-1.58-.64-2.81.21-2.16.64-2.81c.43-.64,1.06-.97,1.88-.97ZM82.04,117.68c-.51,0-.89.25-1.15.75s-.38,1.25-.38,2.25.12,1.75.38,2.25.64.75,1.15.75.89-.25,1.15-.75c.25-.5.38-1.25.38-2.25s-.13-1.75-.38-2.25c-.26-.5-.64-.75-1.15-.75Z"/>
  <rect class="st9" x="86.29" y="123.08" width="1.03" height="1.24"/>
  <path class="st9" d="M91.46,121.08c.44,0,.79-.15,1.05-.45.26-.3.39-.72.39-1.25s-.13-.94-.39-1.24-.61-.46-1.05-.46-.79.16-1.05.46c-.26.3-.39.72-.39,1.24s.13.95.39,1.25c.26.3.61.45,1.05.45ZM89.5,124.17v-.9c.24.12.49.21.75.27.25.06.5.09.75.09.64,0,1.14-.21,1.48-.65.34-.44.54-1.1.6-2-.2.28-.44.5-.72.65-.29.15-.61.22-.96.22-.74,0-1.32-.22-1.74-.66-.42-.44-.63-1.04-.63-1.81s.22-1.34.66-1.8c.44-.45,1.03-.68,1.77-.68.84,0,1.49.33,1.93.97.44.65.67,1.59.67,2.81s-.28,2.07-.82,2.75c-.55.68-1.28,1.02-2.2,1.02-.25,0-.5-.03-.75-.07-.26-.04-.52-.11-.79-.21Z"/>
  <path class="st9" d="M95.74,117.03h2.52c.75,0,1.33.16,1.74.47.4.32.61.76.61,1.33,0,.45-.11.81-.32,1.07-.21.26-.51.43-.91.49.48.11.86.33,1.13.66.26.33.4.74.4,1.23,0,.66-.23,1.16-.67,1.51-.44.36-1.07.53-1.88.53h-2.62v-7.29ZM96.73,117.84v2.2h1.46c.48,0,.83-.09,1.07-.27s.36-.45.36-.83c0-.36-.12-.64-.36-.82s-.59-.28-1.07-.28h-1.46ZM96.73,120.84v2.67h1.58c.53,0,.92-.11,1.18-.33.25-.22.38-.55.38-1.01s-.13-.78-.38-1c-.26-.22-.65-.33-1.18-.33h-1.58Z"/>
  <path class="st9" d="M95.57,94.6h1.24v4.75h1.04v.82h-1.04v1.72h-.98v-1.72h-3.29v-.95l3.03-4.62ZM95.83,95.46l-2.49,3.89h2.49v-3.89Z"/>
  <rect class="st9" x="99.48" y="100.65" width="1.03" height="1.24"/>
  <path class="st9" d="M102.67,94.6h3.87v.83h-2.97v1.79c.14-.05.29-.09.43-.11.14-.02.29-.04.43-.04.81,0,1.45.23,1.93.67.48.45.72,1.05.72,1.81s-.25,1.4-.74,1.83-1.18.64-2.06.64c-.31,0-.62-.03-.94-.07-.32-.05-.64-.12-.98-.23v-.99c.29.16.59.28.91.36.31.08.64.11.99.11.56,0,1.01-.14,1.34-.44.32-.3.49-.7.49-1.21s-.17-.9-.49-1.2c-.33-.3-.78-.45-1.34-.45-.26,0-.53.03-.79.09-.26.06-.53.15-.8.27v-3.66Z"/>
  <path class="st9" d="M108.93,94.6h2.52c.75,0,1.33.16,1.74.47.4.32.61.76.61,1.33,0,.45-.11.81-.32,1.07-.21.26-.51.43-.91.49.48.11.86.33,1.13.66.26.33.4.74.4,1.23,0,.66-.23,1.16-.67,1.51-.44.36-1.07.53-1.88.53h-2.62v-7.29ZM109.92,95.41v2.2h1.46c.48,0,.83-.09,1.07-.27s.36-.45.36-.83c0-.36-.12-.64-.36-.82-.24-.18-.59-.28-1.07-.28h-1.46ZM109.92,98.41v2.67h1.58c.53,0,.92-.11,1.18-.33.25-.22.38-.55.38-1.01s-.13-.78-.38-1c-.26-.22-.65-.33-1.18-.33h-1.58Z"/>
  <polygon class="st9" points="131.26 78.64 132.87 78.64 132.87 73.08 131.12 73.43 131.12 72.53 132.86 72.18 133.85 72.18 133.85 78.64 135.46 78.64 135.46 79.47 131.26 79.47 131.26 78.64"/>
  <path class="st9" d="M137.46,72.18h3.87v.83h-2.97v1.79c.14-.05.29-.09.43-.11s.29-.04.43-.04c.81,0,1.45.23,1.93.67.48.45.72,1.05.72,1.81s-.25,1.4-.74,1.83c-.49.43-1.18.64-2.06.64-.31,0-.62-.03-.94-.07-.32-.05-.64-.12-.98-.23v-.99c.29.16.59.28.91.36.31.08.64.11.99.11.56,0,1.01-.14,1.34-.44.32-.3.49-.7.49-1.21s-.17-.9-.49-1.2c-.33-.3-.78-.45-1.34-.45-.26,0-.53.03-.79.09-.26.06-.53.15-.8.27v-3.66Z"/>
  <rect class="st9" x="143.81" y="78.23" width="1.03" height="1.24"/>
  <path class="st9" d="M149.1,72.05c.81,0,1.43.33,1.87.97.43.65.65,1.59.65,2.81s-.22,2.17-.65,2.81c-.44.64-1.06.96-1.88.96s-1.44-.32-1.87-.96c-.43-.64-.64-1.58-.64-2.81s.21-2.16.64-2.81c.43-.64,1.06-.97,1.88-.97ZM149.1,72.83c-.51,0-.89.25-1.15.75s-.38,1.25-.38,2.25.12,1.75.38,2.25.64.75,1.15.75.89-.25,1.15-.75c.25-.5.38-1.25.38-2.25s-.13-1.75-.38-2.25c-.26-.5-.64-.75-1.15-.75Z"/>
  <path class="st9" d="M153.26,72.18h2.52c.75,0,1.33.16,1.74.47.4.32.61.76.61,1.33,0,.45-.11.81-.32,1.07-.21.26-.51.43-.91.49.48.11.86.33,1.13.66.26.33.4.74.4,1.23,0,.66-.23,1.16-.67,1.51-.44.36-1.07.53-1.88.53h-2.62v-7.29ZM154.25,72.99v2.2h1.46c.48,0,.83-.09,1.07-.27.24-.18.36-.45.36-.83,0-.36-.12-.64-.36-.82-.24-.18-.59-.28-1.07-.28h-1.46ZM154.25,75.99v2.67h1.58c.53,0,.92-.11,1.18-.33.25-.22.38-.55.38-1.01s-.13-.78-.38-1c-.26-.22-.65-.33-1.18-.33h-1.58Z"/>
  <path class="st9" d="M202.78,53.12c.47.1.84.31,1.1.63.26.32.4.72.4,1.18,0,.72-.25,1.28-.74,1.67-.5.39-1.2.58-2.11.58-.31,0-.63-.03-.95-.09-.32-.05-.66-.14-1-.26v-.95c.27.16.57.28.9.36.32.08.66.12,1.02.12.62,0,1.09-.12,1.41-.36.32-.24.49-.6.49-1.07,0-.42-.15-.76-.45-1-.3-.24-.72-.37-1.26-.37h-.85v-.81h.89c.48,0,.85-.09,1.11-.29.26-.19.39-.47.39-.84s-.14-.66-.4-.86c-.27-.2-.65-.3-1.14-.3-.27,0-.56.03-.87.09s-.65.15-1.02.27v-.88c.37-.1.72-.18,1.05-.23.32-.05.63-.08.93-.08.74,0,1.33.17,1.77.51s.66.8.66,1.38c0,.4-.12.74-.35,1.02-.23.28-.56.48-.98.58Z"/>
  <path class="st9" d="M208.6,49.76h1.24v4.75h1.04v.82h-1.04v1.72h-.98v-1.72h-3.29v-.95l3.03-4.62ZM208.86,50.62l-2.49,3.89h2.49v-3.89Z"/>
  <rect class="st9" x="212.51" y="55.81" width="1.03" height="1.24"/>
  <path class="st9" d="M217.8,49.63c.81,0,1.43.33,1.87.97.43.65.65,1.59.65,2.81s-.22,2.17-.65,2.81c-.44.64-1.06.96-1.88.96s-1.44-.32-1.87-.96c-.43-.64-.64-1.58-.64-2.81s.21-2.16.64-2.81c.43-.64,1.06-.97,1.88-.97ZM217.8,50.41c-.51,0-.89.25-1.15.75s-.38,1.25-.38,2.25.12,1.75.38,2.25.64.75,1.15.75.89-.25,1.15-.75c.25-.5.38-1.25.38-2.25s-.13-1.75-.38-2.25c-.26-.5-.64-.75-1.15-.75Z"/>
  <path class="st9" d="M221.96,49.76h2.52c.75,0,1.33.16,1.74.47.4.32.61.76.61,1.33,0,.45-.11.81-.32,1.07-.21.26-.51.43-.91.49.48.11.86.33,1.13.66.26.33.4.74.4,1.23,0,.66-.23,1.16-.67,1.51-.44.36-1.07.53-1.88.53h-2.62v-7.29ZM222.95,50.57v2.2h1.46c.48,0,.83-.09,1.07-.27.24-.18.36-.45.36-.83,0-.36-.12-.64-.36-.82-.24-.18-.59-.28-1.07-.28h-1.46ZM222.95,53.57v2.67h1.58c.53,0,.92-.11,1.18-.33.25-.22.38-.55.38-1.01s-.13-.78-.38-1c-.26-.22-.65-.33-1.18-.33h-1.58Z"/>
  <polygon class="st9" points="353.93 27.33 358.62 27.33 358.62 27.75 355.97 34.62 354.94 34.62 357.43 28.16 353.93 28.16 353.93 27.33"/>
  <path class="st9" d="M364.73,27.49v.9c-.25-.12-.5-.21-.75-.27-.26-.06-.51-.09-.75-.09-.66,0-1.16.22-1.5.66-.34.44-.54,1.11-.58,1.99.19-.28.43-.5.72-.65.29-.15.61-.23.96-.23.73,0,1.31.23,1.73.67.42.44.64,1.05.64,1.81s-.23,1.35-.67,1.8c-.44.45-1.03.67-1.76.67-.84,0-1.49-.32-1.93-.96-.45-.64-.67-1.58-.67-2.81,0-1.15.27-2.07.82-2.75.54-.68,1.28-1.03,2.2-1.03.24,0,.49.03.75.07.25.05.51.12.79.22ZM362.77,30.58c-.44,0-.79.16-1.05.46s-.39.72-.39,1.24.13.95.39,1.25.61.45,1.05.45.79-.15,1.05-.45c.26-.3.39-.72.39-1.25s-.13-.94-.39-1.24c-.26-.3-.61-.46-1.05-.46Z"/>
  <rect class="st9" x="366.9" y="33.38" width="1.03" height="1.24"/>
  <polygon class="st9" points="369.83 27.33 374.52 27.33 374.52 27.75 371.87 34.62 370.84 34.62 373.33 28.16 369.83 28.16 369.83 27.33"/>
  <path class="st9" d="M376.35,27.33h2.52c.75,0,1.33.16,1.74.47.4.32.61.76.61,1.33,0,.45-.11.81-.32,1.07s-.51.43-.91.49c.48.11.86.33,1.13.66.26.33.4.74.4,1.23,0,.66-.23,1.16-.67,1.51-.44.36-1.07.53-1.88.53h-2.62v-7.29ZM377.34,28.14v2.2h1.46c.48,0,.83-.09,1.07-.27.24-.18.36-.45.36-.83,0-.36-.12-.64-.36-.82-.24-.18-.59-.28-1.07-.28h-1.46ZM377.34,31.14v2.67h1.58c.53,0,.92-.11,1.18-.33.25-.22.38-.55.38-1.01s-.13-.78-.38-1c-.26-.22-.65-.33-1.18-.33h-1.58Z"/>
  <polyline class="st6" points="262.36 148.37 272.36 148.37 282.36 148.37"/>
  <path class="st9" d="M293.42,146.27c.78,0,1.39.26,1.84.76.44.51.67,1.21.67,2.11s-.23,1.6-.67,2.1c-.45.51-1.06.76-1.84.76s-1.41-.25-1.85-.76c-.44-.5-.66-1.2-.66-2.1s.22-1.6.66-2.11c.44-.5,1.06-.76,1.85-.76ZM293.42,147.03c-.48,0-.86.19-1.14.57-.28.38-.42.89-.42,1.54s.13,1.17.41,1.55.66.56,1.15.56.86-.18,1.14-.56.42-.89.42-1.55-.14-1.16-.42-1.54c-.28-.38-.66-.57-1.14-.57Z"/>
  <path class="st9" d="M301.35,149.14c0-.66-.14-1.17-.41-1.55-.28-.38-.65-.57-1.12-.57s-.85.19-1.12.57c-.28.38-.41.89-.41,1.55s.13,1.18.41,1.56c.27.38.64.56,1.12.56s.84-.18,1.12-.56c.27-.38.41-.9.41-1.56ZM298.29,151.05v2.89h-.9v-7.54h.9v.83c.18-.32.42-.56.71-.72.29-.16.64-.24,1.04-.24.66,0,1.2.27,1.62.79.41.53.62,1.22.62,2.08s-.21,1.56-.62,2.08c-.42.52-.96.78-1.62.78-.4,0-.75-.08-1.04-.23-.29-.15-.53-.39-.71-.72Z"/>
  <path class="st9" d="M307.55,148.65c-.01-.49-.15-.88-.41-1.18-.27-.29-.63-.44-1.07-.44-.5,0-.9.15-1.2.43-.3.28-.48.68-.52,1.19h3.2ZM308.45,148.91v.44h-4.13c.04.62.22,1.1.56,1.42.33.32.79.48,1.39.48.34,0,.68-.04,1-.12.32-.08.65-.21.97-.39v.85c-.32.14-.65.25-.99.31-.34.06-.69.1-1.03.1-.88,0-1.57-.25-2.08-.75s-.76-1.19-.76-2.06.24-1.6.72-2.13c.48-.52,1.14-.79,1.96-.79.74,0,1.32.24,1.75.71.42.48.64,1.12.64,1.93Z"/>
  <path class="st9" d="M314.47,148.57v3.3h-.9v-3.27c0-.52-.11-.9-.31-1.16s-.5-.39-.9-.39c-.49,0-.87.16-1.15.47-.28.31-.42.73-.42,1.26v3.09h-.9v-5.47h.9v.85c.21-.32.46-.57.76-.73.29-.16.63-.25,1.01-.25.62,0,1.1.2,1.42.59s.49.96.49,1.71Z"/>
  <rect class="st9" x="315.81" y="148.73" width="2.63" height=".8"/>
  <path class="st9" d="M323.36,146.56v.85c-.26-.12-.52-.22-.79-.29-.28-.06-.56-.1-.85-.1-.45,0-.79.07-1.01.21s-.33.34-.33.61c0,.21.08.37.24.49s.48.24.96.34l.31.07c.64.14,1.09.34,1.36.58.26.25.4.6.4,1.04,0,.51-.2.91-.6,1.2-.4.3-.96.44-1.66.44-.3,0-.6-.03-.92-.08-.32-.05-.65-.13-1-.25v-.93c.33.18.66.31.98.39.32.09.64.13.96.13.42,0,.75-.07.98-.21.22-.14.34-.35.34-.62,0-.24-.09-.43-.25-.56-.16-.13-.52-.26-1.08-.38l-.31-.07c-.56-.12-.97-.3-1.21-.54-.25-.24-.37-.57-.37-1,0-.51.18-.91.54-1.19.36-.28.88-.42,1.56-.42.33,0,.64.03.94.08.29.05.56.12.81.21Z"/>
  <path class="st9" d="M327.2,146.27c.78,0,1.39.26,1.84.76.44.51.67,1.21.67,2.11s-.23,1.6-.67,2.1c-.45.51-1.06.76-1.84.76s-1.41-.25-1.85-.76c-.44-.5-.66-1.2-.66-2.1s.22-1.6.66-2.11c.44-.5,1.06-.76,1.85-.76ZM327.2,147.03c-.48,0-.86.19-1.14.57-.28.38-.42.89-.42,1.54s.13,1.17.41,1.55.66.56,1.15.56.86-.18,1.14-.56.42-.89.42-1.55-.14-1.16-.42-1.54c-.28-.38-.66-.57-1.14-.57Z"/>
  <path class="st9" d="M333.37,146.27h0ZM331.11,149.71v-3.31h.9v3.28c0,.52.1.9.3,1.16.2.26.5.39.91.39.48,0,.87-.15,1.15-.46.28-.31.42-.73.42-1.27v-3.1h.9v5.47h-.9v-.84c-.22.34-.48.58-.76.74-.29.15-.62.23-1,.23-.63,0-1.11-.19-1.43-.58-.33-.38-.49-.95-.49-1.71Z"/>
  <path class="st9" d="M340.71,147.24c-.1-.06-.21-.1-.33-.13-.12-.02-.25-.04-.39-.04-.51,0-.9.17-1.17.5-.28.33-.41.8-.41,1.42v2.88h-.9v-5.47h.9v.85c.18-.33.43-.58.73-.74.3-.16.67-.24,1.11-.24.06,0,.13,0,.21,0,.07.01.15.02.25.04v.92Z"/>
  <path class="st9" d="M345.37,146.61v.84c-.26-.14-.51-.24-.77-.31-.26-.07-.51-.11-.77-.11-.58,0-1.04.19-1.36.56-.32.37-.48.89-.48,1.55s.16,1.19.48,1.56c.32.37.78.55,1.36.55.26,0,.51-.03.77-.1.26-.07.51-.18.77-.32v.83c-.26.12-.52.21-.78.26-.27.05-.56.08-.86.08-.82,0-1.48-.25-1.96-.77-.49-.51-.73-1.21-.73-2.09s.24-1.59.73-2.1c.49-.51,1.16-.77,2.02-.77.28,0,.55.03.81.09.26.06.52.14.77.25Z"/>
  <path class="st9" d="M350.71,148.65c-.01-.49-.15-.88-.41-1.18-.27-.29-.63-.44-1.07-.44-.5,0-.9.15-1.2.43-.3.28-.48.68-.52,1.19h3.2ZM351.61,148.91v.44h-4.13c.04.62.22,1.1.56,1.42.33.32.79.48,1.39.48.34,0,.68-.04,1-.12.32-.08.65-.21.97-.39v.85c-.32.14-.65.25-.99.31-.34.06-.69.1-1.03.1-.88,0-1.57-.25-2.08-.75s-.76-1.19-.76-2.06.24-1.6.72-2.13c.48-.52,1.14-.79,1.96-.79.74,0,1.32.24,1.75.71.42.48.64,1.12.64,1.93Z"/>
  <polyline class="st2" points="262.36 163.04 272.36 163.04 282.36 163.04"/>
  <path class="st9" d="M295.24,161.28v.84c-.26-.14-.51-.24-.77-.31-.26-.07-.51-.11-.77-.11-.58,0-1.04.19-1.36.56-.32.37-.48.89-.48,1.55s.16,1.19.48,1.56c.32.37.78.55,1.36.55.26,0,.51-.03.77-.1.26-.07.51-.18.77-.32v.83c-.26.12-.52.21-.78.26-.27.05-.56.08-.86.08-.82,0-1.48-.25-1.96-.77-.49-.51-.73-1.21-.73-2.09s.24-1.59.73-2.1c.49-.51,1.16-.77,2.02-.77.28,0,.55.03.81.09.26.06.52.14.77.25Z"/>
  <rect class="st9" x="296.8" y="158.94" width=".9" height="7.6"/>
  <path class="st9" d="M301.7,160.94c.78,0,1.39.26,1.84.76.44.51.67,1.21.67,2.11s-.23,1.6-.67,2.1c-.45.51-1.06.76-1.84.76s-1.41-.25-1.85-.76c-.44-.5-.66-1.2-.66-2.1s.22-1.6.66-2.11c.44-.5,1.06-.76,1.85-.76ZM301.7,161.7c-.48,0-.86.19-1.14.57s-.42.89-.42,1.54.13,1.17.41,1.55.66.56,1.15.56.86-.18,1.14-.56.42-.89.42-1.55-.14-1.16-.42-1.54-.66-.57-1.14-.57Z"/>
  <path class="st9" d="M309.19,161.23v.85c-.26-.12-.52-.22-.79-.29-.28-.06-.56-.1-.85-.1-.45,0-.79.07-1.01.21s-.33.34-.33.61c0,.21.08.37.24.49s.48.24.96.34l.31.07c.64.14,1.09.34,1.36.58.26.25.4.6.4,1.04,0,.51-.2.91-.6,1.2-.4.3-.96.44-1.66.44-.3,0-.6-.03-.92-.08-.32-.05-.65-.13-1-.25v-.93c.33.18.66.31.98.39.32.09.64.13.96.13.42,0,.75-.07.98-.21.22-.14.34-.35.34-.62,0-.24-.09-.43-.25-.56-.16-.13-.52-.26-1.08-.38l-.31-.07c-.56-.12-.97-.3-1.21-.54-.25-.24-.37-.57-.37-1,0-.51.18-.91.54-1.19.36-.28.88-.42,1.56-.42.33,0,.64.03.94.08.29.05.56.12.81.21Z"/>
  <path class="st9" d="M314.69,163.32c-.01-.49-.15-.88-.41-1.18-.27-.29-.63-.44-1.07-.44-.5,0-.9.15-1.2.43-.3.28-.48.68-.52,1.19h3.2ZM315.59,163.58v.44h-4.13c.04.62.22,1.1.56,1.42.33.32.79.48,1.39.48.34,0,.68-.04,1-.12.32-.08.65-.21.97-.39v.85c-.32.14-.65.25-.99.31-.34.06-.69.1-1.03.1-.88,0-1.57-.25-2.08-.75s-.76-1.19-.76-2.06.24-1.6.72-2.13c.48-.52,1.14-.79,1.96-.79.74,0,1.32.24,1.75.71.42.48.64,1.12.64,1.93Z"/>
  <path class="st9" d="M317.6,163.81c0,.66.13,1.18.4,1.56.27.38.64.56,1.12.56s.85-.18,1.13-.56c.27-.38.41-.9.41-1.56s-.14-1.17-.41-1.55c-.28-.38-.65-.57-1.13-.57s-.85.19-1.12.57c-.27.38-.4.89-.4,1.55ZM320.66,161.9v-2.96h.9v7.6h-.9v-.82c-.19.33-.43.57-.72.72-.29.15-.63.23-1.03.23-.66,0-1.2-.26-1.62-.78-.42-.52-.62-1.22-.62-2.08s.2-1.55.62-2.08c.42-.52.96-.79,1.62-.79.4,0,.74.08,1.03.24.29.16.53.4.72.72Z"/>
  <rect class="st9" x="322.96" y="163.4" width="2.63" height=".8"/>
  <path class="st9" d="M330.51,161.23v.85c-.26-.12-.52-.22-.79-.29-.28-.06-.56-.1-.85-.1-.45,0-.79.07-1.01.21s-.33.34-.33.61c0,.21.08.37.24.49s.48.24.96.34l.31.07c.64.14,1.09.34,1.36.58.26.25.4.6.4,1.04,0,.51-.2.91-.6,1.2-.4.3-.96.44-1.66.44-.3,0-.6-.03-.92-.08-.32-.05-.65-.13-1-.25v-.93c.33.18.66.31.98.39.32.09.64.13.96.13.42,0,.75-.07.98-.21.22-.14.34-.35.34-.62,0-.24-.09-.43-.25-.56-.16-.13-.52-.26-1.08-.38l-.31-.07c-.56-.12-.97-.3-1.21-.54-.25-.24-.37-.57-.37-1,0-.51.18-.91.54-1.19.36-.28.88-.42,1.56-.42.33,0,.64.03.94.08.29.05.56.12.81.21Z"/>
  <path class="st9" d="M334.35,160.94c.78,0,1.39.26,1.84.76.44.51.67,1.21.67,2.11s-.23,1.6-.67,2.1c-.45.51-1.06.76-1.84.76s-1.41-.25-1.85-.76c-.44-.5-.66-1.2-.66-2.1s.22-1.6.66-2.11c.44-.5,1.06-.76,1.85-.76ZM334.35,161.7c-.48,0-.86.19-1.14.57s-.42.89-.42,1.54.13,1.17.41,1.55.66.56,1.15.56.86-.18,1.14-.56.42-.89.42-1.55-.14-1.16-.42-1.54-.66-.57-1.14-.57Z"/>
  <path class="st9" d="M340.52,160.94h0ZM338.26,164.38v-3.31h.9v3.28c0,.52.1.9.3,1.16.2.26.5.39.91.39.48,0,.87-.15,1.15-.46.28-.31.42-.73.42-1.27v-3.1h.9v5.47h-.9v-.84c-.22.34-.48.58-.76.74-.29.15-.62.23-1,.23-.63,0-1.11-.19-1.43-.58-.33-.38-.49-.95-.49-1.71Z"/>
  <path class="st9" d="M347.86,161.91c-.1-.06-.21-.1-.33-.13-.12-.02-.25-.04-.39-.04-.51,0-.9.17-1.17.5-.28.33-.41.8-.41,1.42v2.88h-.9v-5.47h.9v.85c.18-.33.43-.58.73-.74.3-.16.67-.24,1.11-.24.06,0,.13.01.21.01.07,0,.15.02.25.04v.92Z"/>
  <path class="st9" d="M352.52,161.28v.84c-.26-.14-.51-.24-.77-.31-.26-.07-.51-.11-.77-.11-.58,0-1.04.19-1.36.56-.32.37-.48.89-.48,1.55s.16,1.19.48,1.56c.32.37.78.55,1.36.55.26,0,.51-.03.77-.1.26-.07.51-.18.77-.32v.83c-.26.12-.52.21-.78.26-.27.05-.56.08-.86.08-.82,0-1.48-.25-1.96-.77-.49-.51-.73-1.21-.73-2.09s.24-1.59.73-2.1c.49-.51,1.16-.77,2.02-.77.28,0,.55.03.81.09.26.06.52.14.77.25Z"/>
  <path class="st9" d="M357.86,163.32c-.01-.49-.15-.88-.41-1.18-.27-.29-.63-.44-1.07-.44-.5,0-.9.15-1.2.43-.3.28-.48.68-.52,1.19h3.2ZM358.76,163.58v.44h-4.13c.04.62.22,1.1.56,1.42.33.32.79.48,1.39.48.34,0,.68-.04,1-.12.32-.08.65-.21.97-.39v.85c-.32.14-.65.25-.99.31-.34.06-.69.1-1.03.1-.88,0-1.57-.25-2.08-.75s-.76-1.19-.76-2.06.24-1.6.72-2.13c.48-.52,1.14-.79,1.96-.79.74,0,1.32.24,1.75.71.42.48.64,1.12.64,1.93Z"/>
</svg>